<svg width="170" height="50" viewBox="0 0 170 50" fill="none" xmlns="http://www.w3.org/2000/svg">
<g id="Group 1000004124">
<g id="Group 1">
<path id="Polygon 4" d="M25.25 4.18579L42.9006 14.3764C43.0553 14.4657 43.1506 14.6308 43.1506 14.8094V35.1906C43.1506 35.3692 43.0553 35.5343 42.9006 35.6236L25.25 45.8142C25.0953 45.9035 24.9047 45.9035 24.75 45.8142L7.09936 35.6236C6.94466 35.5343 6.84937 35.3692 6.84937 35.1906V14.8094C6.84937 14.6308 6.94466 14.4657 7.09937 14.3764L24.75 4.18579C24.9047 4.09647 25.0953 4.09647 25.25 4.18579Z" stroke="url(#paint0_linear_625_205)" stroke-width="7" stroke-linejoin="round"/>
<path id="Vector 3" d="M25.532 29.7872L43.6171 35.1064" stroke="url(#paint1_linear_625_205)" stroke-width="7" stroke-linecap="round"/>
<path id="Vector 2" d="M25.532 3.19147V29.7872" stroke="#FF8008" stroke-width="7" stroke-linecap="round"/>
</g>
<path id="ITLight" d="M67.456 15.536V38H61.984V15.536H67.456ZM87.5815 15.536V19.92H81.6295V38H76.1575V19.92H70.2055V15.536H87.5815ZM95.7998 33.776H102.968V38H90.3278V15.536H95.7998V33.776ZM108.33 18.288C107.37 18.288 106.58 18.0107 105.962 17.456C105.364 16.88 105.066 16.176 105.066 15.344C105.066 14.4907 105.364 13.7867 105.962 13.232C106.58 12.656 107.37 12.368 108.33 12.368C109.268 12.368 110.036 12.656 110.634 13.232C111.252 13.7867 111.562 14.4907 111.562 15.344C111.562 16.176 111.252 16.88 110.634 17.456C110.036 18.0107 109.268 18.288 108.33 18.288ZM111.05 20.144V38H105.578V20.144H111.05ZM121.799 19.888C123.058 19.888 124.157 20.144 125.095 20.656C126.055 21.168 126.791 21.84 127.303 22.672V20.144H132.775V37.968C132.775 39.6107 132.445 41.0933 131.783 42.416C131.143 43.76 130.151 44.8267 128.807 45.616C127.485 46.4053 125.831 46.8 123.847 46.8C121.202 46.8 119.058 46.1707 117.415 44.912C115.773 43.6747 114.834 41.9893 114.599 39.856H120.007C120.178 40.5387 120.583 41.072 121.223 41.456C121.863 41.8613 122.653 42.064 123.591 42.064C124.722 42.064 125.618 41.7333 126.279 41.072C126.962 40.432 127.303 39.3973 127.303 37.968V35.44C126.77 36.272 126.034 36.9547 125.095 37.488C124.157 38 123.058 38.256 121.799 38.256C120.327 38.256 118.994 37.8827 117.799 37.136C116.605 36.368 115.655 35.2907 114.951 33.904C114.269 32.496 113.927 30.8747 113.927 29.04C113.927 27.2053 114.269 25.5947 114.951 24.208C115.655 22.8213 116.605 21.7547 117.799 21.008C118.994 20.2613 120.327 19.888 121.799 19.888ZM127.303 29.072C127.303 27.7067 126.919 26.6293 126.151 25.84C125.405 25.0507 124.487 24.656 123.399 24.656C122.311 24.656 121.383 25.0507 120.615 25.84C119.869 26.608 119.495 27.6747 119.495 29.04C119.495 30.4053 119.869 31.4933 120.615 32.304C121.383 33.0933 122.311 33.488 123.399 33.488C124.487 33.488 125.405 33.0933 126.151 32.304C126.919 31.5147 127.303 30.4373 127.303 29.072ZM147.71 19.952C149.758 19.952 151.401 20.6347 152.638 22C153.875 23.344 154.494 25.2 154.494 27.568V38H149.054V28.304C149.054 27.1093 148.745 26.1813 148.126 25.52C147.507 24.8587 146.675 24.528 145.63 24.528C144.585 24.528 143.753 24.8587 143.134 25.52C142.515 26.1813 142.206 27.1093 142.206 28.304V38H136.734V14.32H142.206V22.544C142.761 21.7547 143.518 21.1253 144.478 20.656C145.438 20.1867 146.515 19.952 147.71 19.952ZM168.249 33.36V38H165.465C163.481 38 161.934 37.52 160.825 36.56C159.715 35.5787 159.161 33.9893 159.161 31.792V24.688H156.985V20.144H159.161V15.792H164.633V20.144H168.217V24.688H164.633V31.856C164.633 32.3893 164.761 32.7733 165.017 33.008C165.273 33.2427 165.699 33.36 166.297 33.36H168.249Z" fill="url(#paint2_linear_625_205)"/>
</g>
<defs>
<linearGradient id="paint0_linear_625_205" x1="9.04255" y1="-11.1702" x2="45.2128" y2="55.8511" gradientUnits="userSpaceOnUse">
<stop stop-color="#5B6EE7"/>
<stop offset="1" stop-color="#8E55E9"/>
</linearGradient>
<linearGradient id="paint1_linear_625_205" x1="40.9365" y1="44.2203" x2="27.8849" y2="34.7353" gradientUnits="userSpaceOnUse">
<stop stop-color="#FFB82D"/>
<stop offset="1" stop-color="#FF8008"/>
</linearGradient>
<linearGradient id="paint2_linear_625_205" x1="85" y1="6.5" x2="115" y2="50" gradientUnits="userSpaceOnUse">
<stop stop-color="#5D6CE7"/>
<stop offset="1" stop-color="#8E55E9"/>
</linearGradient>
</defs>
</svg>
