<svg width="406" height="141" viewBox="0 0 406 141" fill="none" xmlns="http://www.w3.org/2000/svg">
<path d="M187.961 47.52V92H180.665V47.52H187.961ZM226.276 47.52V53.472H214.436V92H207.14V53.472H195.236V47.52H226.276ZM240.961 86.112H256.001V92H233.665V47.52H240.961V86.112ZM269.399 47.52V92H262.103V47.52H269.399ZM311.17 60.32C310.018 58.1013 308.418 56.4373 306.37 55.328C304.322 54.176 301.954 53.6 299.266 53.6C296.322 53.6 293.698 54.2613 291.394 55.584C289.09 56.9067 287.277 58.784 285.954 61.216C284.674 63.648 284.034 66.464 284.034 69.664C284.034 72.864 284.674 75.7013 285.954 78.176C287.277 80.608 289.09 82.4853 291.394 83.808C293.698 85.1307 296.322 85.792 299.266 85.792C303.234 85.792 306.455 84.6827 308.93 82.464C311.405 80.2453 312.919 77.2373 313.474 73.44H296.77V67.616H321.282V73.312C320.813 76.768 319.575 79.9467 317.57 82.848C315.607 85.7493 313.026 88.0747 309.826 89.824C306.669 91.5307 303.149 92.384 299.266 92.384C295.085 92.384 291.266 91.424 287.81 89.504C284.354 87.5413 281.602 84.832 279.554 81.376C277.549 77.92 276.546 74.016 276.546 69.664C276.546 65.312 277.549 61.408 279.554 57.952C281.602 54.496 284.354 51.808 287.81 49.888C291.309 47.9253 295.127 46.944 299.266 46.944C304.002 46.944 308.205 48.1173 311.874 50.464C315.586 52.768 318.274 56.0533 319.938 60.32H311.17ZM363.998 47.52V92H356.702V72.544H335.774V92H328.478V47.52H335.774V66.592H356.702V47.52H363.998ZM402.339 47.52V53.472H390.499V92H383.203V53.472H371.299V47.52H402.339Z" fill="#2E2E2E"/>
<path d="M0 84.5373L66.9458 141L4.64392e-05 0.317953L0 84.5373Z" fill="#0276FF"/>
<path d="M66.9458 141L132.819 83.6473L132.819 0.31798L66.9458 141Z" fill="#FB3569"/>
<path d="M67.0328 0L97.9305 53.104C85.049 73.9505 50.5503 74.7783 36.3277 54.5821L35.2868 53.104L67.0328 0Z" fill="#02DBFF"/>
</svg>
