<svg width="406" height="141" viewBox="0 0 406 141" fill="none" xmlns="http://www.w3.org/2000/svg">
<path d="M188.096 47.52V92H180.8V47.52H188.096ZM226.411 47.52V53.472H214.571V92H207.275V53.472H195.371V47.52H226.411ZM241.096 86.112H256.136V92H233.8V47.52H241.096V86.112ZM269.534 47.52V92H262.238V47.52H269.534ZM311.305 60.32C310.153 58.1013 308.553 56.4373 306.505 55.328C304.457 54.176 302.089 53.6 299.401 53.6C296.457 53.6 293.833 54.2613 291.529 55.584C289.225 56.9067 287.411 58.784 286.089 61.216C284.809 63.648 284.169 66.464 284.169 69.664C284.169 72.864 284.809 75.7013 286.089 78.176C287.411 80.608 289.225 82.4853 291.529 83.808C293.833 85.1307 296.457 85.792 299.401 85.792C303.369 85.792 306.59 84.6827 309.065 82.464C311.539 80.2453 313.054 77.2373 313.609 73.44H296.905V67.616H321.417V73.312C320.947 76.768 319.71 79.9467 317.705 82.848C315.742 85.7493 313.161 88.0747 309.961 89.824C306.803 91.5307 303.283 92.384 299.401 92.384C295.219 92.384 291.401 91.424 287.945 89.504C284.489 87.5413 281.737 84.832 279.689 81.376C277.683 77.92 276.681 74.016 276.681 69.664C276.681 65.312 277.683 61.408 279.689 57.952C281.737 54.496 284.489 51.808 287.945 49.888C291.443 47.9253 295.262 46.944 299.401 46.944C304.137 46.944 308.339 48.1173 312.009 50.464C315.721 52.768 318.409 56.0533 320.073 60.32H311.305ZM364.133 47.52V92H356.837V72.544H335.909V92H328.613V47.52H335.909V66.592H356.837V47.52H364.133ZM402.474 47.52V53.472H390.634V92H383.338V53.472H371.434V47.52H402.474Z" fill="white"/>
<path d="M0.134521 84.5373L67.0803 141L0.134568 0.317953L0.134521 84.5373Z" fill="#0276FF"/>
<path d="M67.0803 141L132.954 83.6473L132.954 0.31798L67.0803 141Z" fill="#FB3569"/>
<path d="M67.1673 0L98.065 53.104C85.1835 73.9505 50.6849 74.7783 36.4622 54.5821L35.4213 53.104L67.1673 0Z" fill="#02DBFF"/>
</svg>
