<?xml version="1.0" encoding="UTF-8" standalone="no"?>
<svg
   xmlns:dc="http://purl.org/dc/elements/1.1/"
   xmlns:cc="http://creativecommons.org/ns#"
   xmlns:rdf="http://www.w3.org/1999/02/22-rdf-syntax-ns#"
   xmlns:svg="http://www.w3.org/2000/svg"
   xmlns="http://www.w3.org/2000/svg"
   xmlns:sodipodi="http://sodipodi.sourceforge.net/DTD/sodipodi-0.dtd"
   xmlns:inkscape="http://www.inkscape.org/namespaces/inkscape"
   width="600px"
   height="120px"
   viewBox="0 0 600 120"
   version="1.1"
   id="svg39"
   sodipodi:docname="profil_3.svg"
   inkscape:version="0.92.5 (2060ec1f9f, 2020-04-08)">
  <metadata
     id="metadata45">
    <rdf:RDF>
      <cc:Work
         rdf:about="">
        <dc:format>image/svg+xml</dc:format>
        <dc:type
           rdf:resource="http://purl.org/dc/dcmitype/StillImage" />
      </cc:Work>
    </rdf:RDF>
  </metadata>
  <defs
     id="defs43" />
  <sodipodi:namedview
     pagecolor="#ffffff"
     bordercolor="#666666"
     borderopacity="1"
     objecttolerance="10"
     gridtolerance="10"
     guidetolerance="10"
     inkscape:pageopacity="0"
     inkscape:pageshadow="2"
     inkscape:window-width="1848"
     inkscape:window-height="1016"
     id="namedview41"
     showgrid="false"
     inkscape:zoom="1.9091883"
     inkscape:cx="96.433225"
     inkscape:cy="25.841577"
     inkscape:window-x="72"
     inkscape:window-y="27"
     inkscape:window-maximized="1"
     inkscape:current-layer="svg39" />
  <title
     id="title2">profil_3</title>
  <g
     id="profil_3"
     stroke="none"
     stroke-width="1"
     fill="none"
     fill-rule="evenodd">
    <rect
       id="Rectangle"
       stroke="#3F51B5"
       stroke-width="8"
       fill="#3F51B5"
       x="4"
       y="4"
       width="592"
       height="113" />
    <g
       id="all"
       transform="translate(40.000000, 30.000000)">
      <path
         style="font-weight:500;font-size:37.33333206px;font-family:Nunito-SemiBold, Nunito;letter-spacing:0.55813956;fill:#ffffff"
         d="M 86.732422 47.140625 L 81.628906 53.994141 L 84.417969 53.994141 L 90.359375 47.140625 L 86.732422 47.140625 z M 99.6875 48.634766 L 99.6875 52.882812 L 103.04102 52.882812 L 103.04102 48.634766 L 99.6875 48.634766 z M 192.74805 48.634766 C 190.5727 48.634766 188.95573 49.17079 187.89844 50.240234 C 186.8533 51.297526 186.33203 52.938151 186.33203 55.162109 L 186.33203 56.583984 L 183.12305 56.583984 L 183.12305 59.189453 L 186.33203 59.189453 L 186.33203 77 L 189.70312 77 L 189.70312 59.189453 L 198.91016 59.189453 L 198.91016 77 L 202.28125 77 L 202.28125 56.583984 L 189.70312 56.583984 L 189.70312 54.779297 C 189.70313 53.515408 189.93468 52.640408 190.39648 52.154297 C 190.87044 51.668186 191.70898 51.423828 192.91211 51.423828 L 196.12109 51.423828 L 196.12109 48.634766 L 192.74805 48.634766 z M 210.41602 48.634766 L 210.41602 77 L 213.77148 77 L 213.77148 48.634766 L 210.41602 48.634766 z M 198.91016 48.671875 L 198.91016 52.919922 L 202.28125 52.919922 L 202.28125 48.671875 L 198.91016 48.671875 z M 43.664062 49.783203 L 43.664062 77 L 47.236328 77 L 47.236328 53.101562 L 54.255859 71.767578 L 57.955078 71.767578 L 64.974609 53.101562 L 64.974609 77 L 68.564453 77 L 68.564453 49.783203 L 63.078125 49.783203 L 56.095703 68.304688 L 49.150391 49.783203 L 43.664062 49.783203 z M 84.199219 56.091797 C 81.270399 56.091797 78.973524 57.039714 77.308594 58.935547 C 75.655816 60.83138 74.828125 63.45638 74.828125 66.810547 C 74.828125 70.152561 75.655816 72.777561 77.308594 74.685547 C 78.973524 76.58138 81.270399 77.529297 84.199219 77.529297 C 87.115885 77.529297 89.405382 76.58138 91.070312 74.685547 C 92.735243 72.777561 93.568359 70.152561 93.568359 66.810547 C 93.568359 63.45638 92.735243 60.83138 91.070312 58.935547 C 89.405382 57.039714 87.115885 56.091797 84.199219 56.091797 z M 132.8125 56.091797 C 131.31771 56.091797 130.03082 56.388889 128.94922 56.984375 C 127.87977 57.567708 126.99197 58.466363 126.28711 59.681641 L 126.28711 56.583984 L 122.91406 56.583984 L 122.91406 84.765625 L 126.28711 84.765625 L 126.28711 73.9375 C 126.99197 75.152778 127.87977 76.058811 128.94922 76.654297 C 130.03082 77.23763 131.31771 77.529297 132.8125 77.529297 C 135.29167 77.529297 137.30425 76.544922 138.84766 74.576172 C 140.40321 72.607422 141.17969 70.01888 141.17969 66.810547 C 141.17969 63.602214 140.40321 61.013672 138.84766 59.044922 C 137.30425 57.076173 135.29167 56.091797 132.8125 56.091797 z M 157.41602 56.091797 C 155.7997 56.091797 154.42708 56.394314 153.29688 57.001953 C 152.16666 57.597439 151.24783 58.516276 150.54297 59.755859 L 150.54297 56.583984 L 147.17188 56.583984 L 147.17188 77 L 150.54297 77 L 150.54297 66.244141 C 150.54297 63.935113 151.04796 62.166883 152.05664 60.939453 C 153.07747 59.69987 154.53581 59.080078 156.43164 59.080078 C 156.96637 59.080078 157.45312 59.134766 157.89062 59.244141 C 158.34027 59.341363 158.75217 59.5 159.12891 59.71875 L 159.11133 56.273438 C 158.77105 56.212675 158.46115 56.170791 158.18164 56.146484 C 157.90213 56.110024 157.64692 56.091797 157.41602 56.091797 z M 170.29688 56.091797 C 167.36806 56.091797 165.07118 57.039714 163.40625 58.935547 C 161.75347 60.83138 160.92773 63.45638 160.92773 66.810547 C 160.92773 70.152561 161.75347 72.777561 163.40625 74.685547 C 165.07118 76.58138 167.36805 77.529297 170.29688 77.529297 C 173.21354 77.529297 175.50499 76.58138 177.16992 74.685547 C 178.83485 72.777561 179.66602 70.152561 179.66602 66.810547 C 179.66602 63.45638 178.83485 60.83138 177.16992 58.935547 C 175.50499 57.039714 173.21354 56.091797 170.29688 56.091797 z M 243.61523 56.091797 C 242.19336 56.091797 240.93555 56.394314 239.8418 57.001953 C 238.7602 57.609592 237.81966 58.528429 237.01758 59.755859 L 237.01758 56.583984 L 233.64453 56.583984 L 233.64453 77 L 237.01758 77 L 237.01758 65.460938 C 237.01758 63.467882 237.53884 61.894748 238.58398 60.740234 C 239.62912 59.58572 241.05838 59.007812 242.86914 59.007812 C 244.37609 59.007812 245.50629 59.487196 246.25977 60.447266 C 247.01324 61.407335 247.38867 62.854817 247.38867 64.787109 L 247.38867 77 L 250.74414 77 L 250.74414 64.677734 C 250.74414 61.85829 250.14257 59.725478 248.93945 58.279297 C 247.73633 56.820964 245.96072 56.091797 243.61523 56.091797 z M 265.15625 56.091797 C 264.0625 56.091797 262.93772 56.212023 261.7832 56.455078 C 260.62869 56.685981 259.43836 57.039714 258.21094 57.513672 L 258.21094 60.611328 C 259.23177 60.0523 260.29449 59.63303 261.40039 59.353516 C 262.5063 59.074002 263.64388 58.935547 264.81055 58.935547 C 266.64561 58.935547 268.06749 59.360243 269.07617 60.210938 C 270.09701 61.04948 270.60742 62.2398 270.60742 63.783203 L 270.60742 64.111328 L 265.9043 64.111328 C 262.85395 64.111328 260.55708 64.694661 259.01367 65.861328 C 257.48243 67.027994 256.7168 68.759765 256.7168 71.056641 C 256.7168 73.025391 257.32921 74.600478 258.55664 75.779297 C 259.79623 76.945964 261.46246 77.529297 263.55273 77.529297 C 265.20551 77.529297 266.60178 77.23763 267.74414 76.654297 C 268.8865 76.058811 269.8418 75.139974 270.60742 73.900391 L 270.60742 77 L 273.96094 77 L 273.96094 65.351562 C 273.96094 62.240451 273.23177 59.919922 271.77344 58.388672 C 270.3151 56.857423 268.10938 56.091797 265.15625 56.091797 z M 99.6875 56.583984 L 99.6875 77.365234 C 99.6875 79.22461 99.455947 80.445964 98.994141 81.029297 C 98.532335 81.624783 97.66276 81.921875 96.386719 81.921875 L 95.494141 81.921875 L 95.494141 84.765625 L 96.769531 84.765625 C 98.969184 84.765625 100.5625 84.182292 101.54688 83.015625 C 102.5434 81.848958 103.04102 79.965929 103.04102 77.365234 L 103.04102 56.583984 L 99.6875 56.583984 z M 131.99219 58.898438 C 133.76649 58.898437 135.15929 59.60395 136.16797 61.013672 C 137.1888 62.411241 137.69922 64.343533 137.69922 66.810547 C 137.69922 69.277561 137.1888 71.215278 136.16797 72.625 C 135.15929 74.022569 133.76649 74.720703 131.99219 74.720703 C 130.21788 74.720703 128.82161 74.022569 127.80078 72.625 C 126.7921 71.215278 126.28711 69.277561 126.28711 66.810547 C 126.28711 64.343533 126.7921 62.411241 127.80078 61.013672 C 128.82161 59.60395 130.21788 58.898438 131.99219 58.898438 z M 84.199219 58.935547 C 85.985677 58.935547 87.400174 59.646484 88.445312 61.068359 C 89.490451 62.478081 90.013672 64.392144 90.013672 66.810547 C 90.013672 69.241102 89.490451 71.16059 88.445312 72.570312 C 87.400174 73.980035 85.985677 74.685547 84.199219 74.685547 C 82.388455 74.685547 80.959202 73.98546 79.914062 72.587891 C 78.881077 71.178169 78.365234 69.253256 78.365234 66.810547 C 78.365234 64.367839 78.888454 62.446397 79.933594 61.048828 C 80.978732 59.639105 82.400608 58.935547 84.199219 58.935547 z M 170.29688 58.935547 C 172.08334 58.935547 173.49978 59.646484 174.54492 61.068359 C 175.59006 62.478081 176.11133 64.392144 176.11133 66.810547 C 176.11133 69.241102 175.59006 71.16059 174.54492 72.570312 C 173.49978 73.980035 172.08334 74.685547 170.29688 74.685547 C 168.48611 74.685547 167.05881 73.98546 166.01367 72.587891 C 164.98069 71.178169 164.46289 69.253256 164.46289 66.810547 C 164.46289 64.367839 164.98611 62.446397 166.03125 61.048828 C 167.07639 59.639105 168.49827 58.935547 170.29688 58.935547 z M 267.27148 66.736328 L 270.60742 66.736328 L 270.60742 67.484375 C 270.60742 69.671875 270.04232 71.4273 268.91211 72.751953 C 267.79406 74.064453 266.30469 74.720703 264.44531 74.720703 C 263.09636 74.720703 262.02626 74.374349 261.23633 73.681641 C 260.45855 72.976779 260.07031 72.028863 260.07031 70.837891 C 260.07031 69.343099 260.59353 68.285807 261.63867 67.666016 C 262.68381 67.046224 264.56142 66.736328 267.27148 66.736328 z "
         transform="translate(-40,-30)"
         id="path28" />
      <g
         id="logo"
         transform="translate(273.488372, 4.186047)">
        <polyline
           id="Path"
           stroke="#FFFFFF"
           stroke-width="5.97709129"
           stroke-linecap="round"
           stroke-linejoin="round"
           points="3.46817077 7.94842763 35.0613676 7.94842763 20.759042 22.2507532" />
        <polyline
           id="polyline9"
           stroke="#FFFFFF"
           stroke-width="5.97709129"
           stroke-linecap="round"
           stroke-linejoin="round"
           points="7.94842763 15.6990073 0.197847969 7.94842763 7.94842763 0.197847969" />
        <polyline
           id="polyline11"
           stroke="#FFFFFF"
           stroke-width="5.97709129"
           stroke-linecap="round"
           stroke-linejoin="round"
           points="31.7910448 42.9571052 0.197847969 42.9571052 14.5001736 28.6547796" />
        <polyline
           id="polyline13"
           stroke="#FFFFFF"
           stroke-width="5.97709129"
           stroke-linecap="round"
           stroke-linejoin="round"
           points="27.3816591 35.2773967 35.0622215 42.957959 27.3816591 50.6368136" />
        <polyline
           id="polyline15"
           stroke="#FFFFFF"
           stroke-width="5.97709129"
           stroke-linecap="round"
           stroke-linejoin="round"
           points="49.3636932 7.94842763 49.3636932 42.9571052 68.2197084 42.9571052" />
        <polyline
           id="polyline17"
           stroke="#FFFFFF"
           stroke-width="5.97709129"
           stroke-linecap="round"
           stroke-linejoin="round"
           points="100.240694 42.9571052 79.6769386 42.9571052 79.6769386 7.94842763 100.240694 7.94842763" />
        <line
           x1="92.0572024"
           y1="25.4527664"
           x2="80.5299549"
           y2="25.4527664"
           id="line19"
           stroke="#FFFFFF"
           stroke-width="5.97709129"
           stroke-linecap="round"
           stroke-linejoin="round" />
        <path
           d="M135.69253,40.7951059 C133.191545,42.1723985 130.317418,42.9562513 127.259708,42.9562513 C117.59219,42.9562513 109.75537,35.1194308 109.75537,25.4519125 C109.75537,15.7852482 117.59219,7.94757376 127.259708,7.94757376 C130.040764,7.94757376 132.66983,8.5965151 135.005165,9.75009372"
           id="path21"
           stroke="#FFFFFF"
           stroke-width="5.97709129"
           stroke-linecap="round"
           stroke-linejoin="round" />
        <polyline
           id="polyline23"
           stroke="#FFFFFF"
           stroke-width="5.97709129"
           stroke-linecap="round"
           stroke-linejoin="round"
           points="145.851024 42.9571052 163.56883 7.94842763 181.286637 42.9571052" />
        <circle
           id="Oval"
           fill="#FFFFFF"
           cx="193.255814"
           cy="42.5581395"
           r="3.48837209" />
        <line
           x1="174.64865"
           y1="29.8408053"
           x2="153.962791"
           y2="29.8408053"
           id="line26"
           stroke="#FFFFFF"
           stroke-width="5.97709129"
           stroke-linecap="round"
           stroke-linejoin="round" />
        <line
           x1="193.667754"
           y1="42.9571052"
           x2="193.667754"
           y2="42.9571052"
           id="line28"
           stroke="#FFFFFF"
           stroke-width="5.97709129"
           stroke-linecap="round"
           stroke-linejoin="round" />
        <line
           x1="205.408469"
           y1="42.9571052"
           x2="205.408469"
           y2="19.9026102"
           id="line30"
           stroke="#FFFFFF"
           stroke-width="5.97709129"
           stroke-linecap="round"
           stroke-linejoin="round" />
        <path
           d="M205.408469,18.3699132 L212.064387,18.3699132 C215.975967,18.3699132 219.147241,21.5411871 219.147241,25.4527664 C219.147241,29.3651996 215.975967,32.5356196 212.064387,32.5356196 L205.408469,32.5356196"
           id="path32"
           stroke="#FFFFFF"
           stroke-width="5.97709129"
           stroke-linecap="round"
           stroke-linejoin="round" />
        <polyline
           id="polyline34"
           stroke="#FFFFFF"
           stroke-width="5.97709129"
           stroke-linecap="round"
           stroke-linejoin="round"
           points="231.45151 18.3699132 231.45151 42.957959 245.3269 42.957959" />
      </g>
    </g>
  </g>
</svg>
