<svg width="72" height="72" viewBox="0 0 72 72" fill="none" xmlns="http://www.w3.org/2000/svg">
<rect width="72" height="72" rx="19" fill="url(#paint0_linear_11_82)"/>
<path d="M17.7558 40.6115L35.3153 57.1068C35.6398 57.4116 35.802 57.564 36 57.564C36.198 57.564 36.3602 57.4116 36.6847 57.1068L54.2442 40.6115C56.4705 38.5202 57.5836 37.4745 58.2479 36.3233C59.605 33.9718 59.828 31.1333 58.8547 28.5987C58.3783 27.358 57.4421 26.1513 55.5697 23.738L54.8221 22.7744C52.7059 20.0469 51.6479 18.6831 50.622 17.978C47.366 15.7398 42.9636 16.2138 40.2587 19.094C39.4065 20.0014 38.6631 21.5591 37.1761 24.6747C36.9442 25.1605 36.8283 25.4035 36.7063 25.5252C36.316 25.9146 35.6841 25.9146 35.2937 25.5252C35.1717 25.4035 35.0558 25.1605 34.8239 24.6747L34.8239 24.6747C33.3369 21.5591 32.5935 20.0014 31.7413 19.094C29.0364 16.2138 24.634 15.7398 21.378 17.978C20.3522 18.6831 19.2941 20.0469 17.1779 22.7744L17.1779 22.7744L16.4303 23.738C14.5579 26.1513 13.6217 27.358 13.1453 28.5987C12.1721 31.1333 12.395 33.9718 13.7521 36.3233C14.4164 37.4745 15.5295 38.5202 17.7558 40.6115Z" fill="#D9D9D9" fill-opacity="0.19" stroke="white" stroke-width="2"/>
<defs>
<linearGradient id="paint0_linear_11_82" x1="2" y1="2" x2="36" y2="72" gradientUnits="userSpaceOnUse">
<stop stop-color="#33C7C2"/>
<stop offset="1" stop-color="#15A0D1"/>
</linearGradient>
</defs>
</svg>
