<svg width="72" height="72" viewBox="0 0 72 72" fill="none" xmlns="http://www.w3.org/2000/svg">
<rect width="72" height="72" rx="19" fill="url(#paint0_linear_1_10)"/>
<path fill-rule="evenodd" clip-rule="evenodd" d="M44.126 45.0203C44.2411 44.7653 44.2986 44.6378 44.3907 44.5299C44.4827 44.4219 44.6168 44.3335 44.8849 44.1567C49.0208 41.4291 51.75 36.7416 51.75 31.4167C51.75 22.9943 44.9223 16.1667 36.5 16.1667C28.0777 16.1667 21.25 22.9943 21.25 31.4167C21.25 36.7416 23.9792 41.4291 28.1151 44.1567C28.3832 44.3335 28.5173 44.4219 28.6093 44.5299C28.7014 44.6379 28.7589 44.7653 28.874 45.0203C30.3768 48.3494 31.2325 51.9393 31.3901 55.5976C31.4169 56.2199 31.4303 56.531 31.5785 56.7597C31.7267 56.9883 31.9919 57.1209 32.5222 57.3861L34.7111 58.4806C35.8373 59.0436 37.1627 59.0436 38.2889 58.4806L40.4778 57.3861C41.0081 57.1209 41.2733 56.9883 41.4215 56.7597C41.5697 56.531 41.5831 56.2199 41.6099 55.5976C41.7675 51.9393 42.6232 48.3494 44.126 45.0203Z" fill="#D9D9D9" fill-opacity="0.19"/>
<path d="M34.7111 58.4806L34.3757 59.1514L34.3757 59.1514L34.7111 58.4806ZM38.2889 58.4806L38.6243 59.1514L38.6243 59.1514L38.2889 58.4806ZM40.4778 57.3861L40.1424 56.7153L40.4778 57.3861ZM41.6099 55.5976L40.8606 55.5654L41.6099 55.5976ZM41.4215 56.7597L42.0509 57.1676L41.4215 56.7597ZM31.3901 55.5976L32.1394 55.5654L31.3901 55.5976ZM31.5785 56.7597L30.9491 57.1676L31.5785 56.7597ZM28.1151 44.1567L27.7022 44.7828L28.1151 44.1567ZM28.874 45.0203L28.1904 45.3288L28.874 45.0203ZM28.6093 44.5299L29.1801 44.0433L28.6093 44.5299ZM44.8849 44.1567L45.2978 44.7828L44.8849 44.1567ZM44.126 45.0203L43.4424 44.7117L44.126 45.0203ZM44.3907 44.5299L43.8199 44.0433L44.3907 44.5299ZM51 31.4167C51 36.479 48.4064 40.9359 44.4719 43.5306L45.2978 44.7828C49.6352 41.9224 52.5 37.0043 52.5 31.4167H51ZM36.5 16.9167C44.5081 16.9167 51 23.4085 51 31.4167H52.5C52.5 22.5801 45.3366 15.4167 36.5 15.4167V16.9167ZM22 31.4167C22 23.4085 28.4919 16.9167 36.5 16.9167V15.4167C27.6634 15.4167 20.5 22.5801 20.5 31.4167H22ZM28.5281 43.5306C24.5936 40.9359 22 36.479 22 31.4167H20.5C20.5 37.0043 23.3648 41.9224 27.7022 44.7828L28.5281 43.5306ZM32.1394 55.5654C31.9777 51.8115 31.0996 48.1278 29.5576 44.7117L28.1904 45.3288C29.6539 48.571 30.4873 52.0672 30.6408 55.6299L32.1394 55.5654ZM35.0466 57.8098L32.8576 56.7153L32.1868 58.0569L34.3757 59.1514L35.0466 57.8098ZM37.9534 57.8098C37.0385 58.2672 35.9615 58.2672 35.0466 57.8098L34.3757 59.1514C35.713 59.82 37.287 59.82 38.6243 59.1514L37.9534 57.8098ZM40.1424 56.7153L37.9534 57.8098L38.6243 59.1514L40.8132 58.0569L40.1424 56.7153ZM43.4424 44.7117C41.9004 48.1278 41.0223 51.8115 40.8606 55.5654L42.3592 55.6299C42.5127 52.0672 43.3461 48.571 44.8096 45.3288L43.4424 44.7117ZM40.8132 58.0569C41.0653 57.9309 41.3026 57.8131 41.4917 57.6944C41.6934 57.5678 41.8953 57.4076 42.0509 57.1676L40.7922 56.3518C40.7995 56.3405 40.7947 56.3609 40.6942 56.424C40.581 56.495 40.4206 56.5762 40.1424 56.7153L40.8132 58.0569ZM40.8606 55.5654C40.8466 55.8906 40.8376 56.0831 40.8182 56.2245C40.8004 56.3543 40.7822 56.3672 40.7922 56.3518L42.0509 57.1676C42.2091 56.9236 42.2716 56.6666 42.3043 56.4281C42.3354 56.2012 42.3464 55.9269 42.3592 55.6299L40.8606 55.5654ZM30.6408 55.6299C30.6536 55.9269 30.6646 56.2012 30.6957 56.4281C30.7284 56.6666 30.7909 56.9236 30.9491 57.1676L32.2078 56.3518C32.2178 56.3672 32.1996 56.3543 32.1818 56.2245C32.1624 56.0831 32.1534 55.8906 32.1394 55.5654L30.6408 55.6299ZM32.8576 56.7153C32.5794 56.5762 32.419 56.495 32.3058 56.424C32.2053 56.3609 32.2005 56.3405 32.2078 56.3518L30.9491 57.1676C31.1047 57.4076 31.3066 57.5678 31.5083 57.6944C31.6974 57.8131 31.9347 57.9309 32.1868 58.0569L32.8576 56.7153ZM27.7022 44.7828C27.8425 44.8753 27.9245 44.9297 27.9842 44.9735C28.0393 45.014 28.045 45.024 28.0385 45.0164L29.1801 44.0433C29.002 43.8344 28.7548 43.6802 28.5281 43.5306L27.7022 44.7828ZM29.5576 44.7117C29.4588 44.4929 29.3567 44.2505 29.1801 44.0433L28.0385 45.0164C28.0386 45.0165 28.04 45.018 28.0436 45.0237C28.0479 45.0302 28.0556 45.0429 28.068 45.0667C28.0962 45.1208 28.1296 45.1941 28.1904 45.3288L29.5576 44.7117ZM44.4719 43.5306C44.2452 43.6802 43.998 43.8344 43.8199 44.0433L44.9615 45.0164C44.955 45.024 44.9607 45.014 45.0158 44.9735C45.0755 44.9297 45.1575 44.8753 45.2978 44.7828L44.4719 43.5306ZM44.8096 45.3288C44.8704 45.1941 44.9038 45.1208 44.932 45.0667C44.9444 45.0429 44.9521 45.0302 44.9564 45.0236C44.96 45.018 44.9614 45.0165 44.9615 45.0164L43.8199 44.0433C43.6433 44.2505 43.5412 44.4929 43.4424 44.7117L44.8096 45.3288Z" fill="white"/>
<path d="M42.8542 47.9375V47.9375C38.7752 49.5691 34.2248 49.5691 30.1458 47.9375V47.9375" stroke="white" stroke-width="1.5"/>
<path d="M34.0714 40V30C34.0714 28.3431 32.7283 27 31.0714 27H30.9545C29.3228 27 28 28.3228 28 29.9545V29.9545C28 31.5863 29.3228 32.9091 30.9545 32.9091H42.0455C43.6772 32.9091 45 31.5863 45 29.9545V29.9545C45 28.3228 43.6772 27 42.0455 27H41.9286C40.2717 27 38.9286 28.3431 38.9286 30V40" stroke="white" stroke-width="1.5" stroke-linecap="round"/>
<defs>
<linearGradient id="paint0_linear_1_10" x1="2" y1="2" x2="36" y2="72" gradientUnits="userSpaceOnUse">
<stop stop-color="#33C7C2"/>
<stop offset="1" stop-color="#15A0D1"/>
</linearGradient>
</defs>
</svg>
