<svg width="72" height="72" viewBox="0 0 72 72" fill="none" xmlns="http://www.w3.org/2000/svg">
<rect width="72" height="72" rx="19" fill="url(#paint0_linear_113_15)"/>
<g clip-path="url(#clip0_113_15)">
<path d="M46.4553 55L17.2296 34.9521C16.2329 34.2699 15.4192 33.3629 14.8574 32.3081C14.2957 31.2533 14.0023 30.0817 14.0023 28.8926C14.0023 27.7035 14.2957 26.5319 14.8574 25.477C15.4192 24.4222 16.2329 23.5153 17.2296 22.833L24.3088 18L53.5346 38.0505C54.5307 38.7331 55.344 39.6402 55.9051 40.695C56.4666 41.7497 56.7599 42.9211 56.7599 44.11C56.7599 45.2989 56.4666 46.4703 55.9051 47.5251C55.344 48.5799 54.5307 49.487 53.5346 50.1697L46.4553 55ZM24.3061 21.2238L18.7882 24.9961C18.1467 25.4347 17.623 26.018 17.2614 26.6966C16.8998 27.3751 16.711 28.1288 16.711 28.8939C16.711 29.6589 16.8998 30.4127 17.2614 31.0912C17.623 31.7697 18.1467 32.353 18.7882 32.7916L46.4634 51.7761L51.9813 48.0065C52.6223 47.5675 53.1454 46.9841 53.5067 46.3056C53.868 45.6271 54.0564 44.8736 54.0564 44.1087C54.0564 43.3439 53.868 42.5904 53.5067 41.9119C53.1454 41.2334 52.6223 40.6499 51.9813 40.211L24.3061 21.2238Z" fill="#4BC0C8"/>
<path d="M46.4553 55L17.2296 34.9521C16.2329 34.2699 15.4192 33.3629 14.8574 32.3081C14.2957 31.2533 14.0023 30.0817 14.0023 28.8926C14.0023 27.7035 14.2957 26.5319 14.8574 25.477C15.4192 24.4222 16.2329 23.5153 17.2296 22.833L24.3088 18L53.5346 38.0505C54.5307 38.7331 55.344 39.6402 55.9051 40.695C56.4666 41.7497 56.7599 42.9211 56.7599 44.11C56.7599 45.2989 56.4666 46.4703 55.9051 47.5251C55.344 48.5799 54.5307 49.487 53.5346 50.1697L46.4553 55ZM24.3061 21.2238L18.7882 24.9961C18.1467 25.4347 17.623 26.018 17.2614 26.6966C16.8998 27.3751 16.711 28.1288 16.711 28.8939C16.711 29.6589 16.8998 30.4127 17.2614 31.0912C17.623 31.7697 18.1467 32.353 18.7882 32.7916L46.4634 51.7761L51.9813 48.0065C52.6223 47.5675 53.1454 46.9841 53.5067 46.3056C53.868 45.6271 54.0564 44.8736 54.0564 44.1087C54.0564 43.3439 53.868 42.5904 53.5067 41.9119C53.1454 41.2334 52.6223 40.6499 51.9813 40.211L24.3061 21.2238Z" fill="white"/>
<path d="M24.2797 51.7579L18.7698 47.9777C18.1289 47.5388 17.6056 46.9553 17.2444 46.2768C16.8832 45.5983 16.6946 44.8448 16.6946 44.08C16.6946 43.3151 16.8832 42.5616 17.2444 41.8831C17.6056 41.2046 18.1289 40.6212 18.7698 40.1822L33.0324 30.4378L30.6799 28.8286L17.2272 38.0191C16.2306 38.7014 15.4169 39.6083 14.8551 40.6631C14.2933 41.718 14 42.8896 14 44.0786C14 45.2678 14.2933 46.4394 14.8551 47.4942C15.4169 48.5489 16.2306 49.4561 17.2272 50.1381L24.2877 54.9818L33.0217 49.0096L30.6691 47.3952L24.2797 51.7579Z" fill="white"/>
<path d="M53.5482 22.8617L46.4851 18.0183L37.743 23.9955L40.0957 25.61L46.4823 21.2525L51.995 25.0327C52.636 25.4717 53.1591 26.0551 53.5204 26.7336C53.8817 27.4121 54.0701 28.1656 54.0701 28.9305C54.0701 29.6953 53.8817 30.4488 53.5204 31.1273C53.1591 31.8058 52.636 32.3892 51.995 32.8282L37.7297 42.5648L40.0823 44.1793L53.5377 34.9809C54.5342 34.2986 55.3481 33.3917 55.9098 32.3368C56.4716 31.282 56.7649 30.1104 56.7649 28.9213C56.7649 27.7322 56.4716 26.5606 55.9098 25.5058C55.3481 24.4509 54.5342 23.544 53.5377 22.8617H53.5482Z" fill="white"/>
<path d="M30.0234 29.2629L18.909 36.8621L20.4585 39.0262L31.573 31.4269L30.0234 29.2629Z" fill="white"/>
<path d="M50.5565 33.7922L45.1428 37.4966L46.6908 39.6597L52.305 35.8168C51.7169 35.1533 51.1368 34.474 50.5565 33.7922Z" fill="white"/>
</g>
<defs>
<linearGradient id="paint0_linear_113_15" x1="2" y1="2" x2="36" y2="72" gradientUnits="userSpaceOnUse">
<stop stop-color="#33C7C2"/>
<stop offset="1" stop-color="#15A0D1"/>
</linearGradient>
<clipPath id="clip0_113_15">
<rect width="43" height="37" fill="white" transform="translate(14 18)"/>
</clipPath>
</defs>
</svg>
