<svg width="72" height="72" viewBox="0 0 72 72" fill="none" xmlns="http://www.w3.org/2000/svg">
<rect width="72" height="72" rx="19" fill="url(#paint0_linear_113_46)"/>
<mask id="path-2-inside-1_113_46" fill="white">
<path d="M50.4998 36.1019C52.6444 36.0645 54.4555 37.7916 54.0338 39.8947C53.593 42.0932 52.7438 44.2015 51.5186 46.1064C49.5887 49.1067 46.8126 51.4673 43.5411 52.8898C40.2696 54.3123 36.6498 54.7327 33.1394 54.0979C29.6289 53.4631 26.3856 51.8016 23.8194 49.3235C21.2533 46.8454 19.4796 43.662 18.7227 40.1759C17.9658 36.6898 18.2596 33.0575 19.5671 29.7384C20.8745 26.4192 23.1368 23.5624 26.0679 21.529C27.9289 20.238 30.0063 19.3158 32.188 18.7985C34.2751 18.3037 36.0645 20.0534 36.1019 22.198V22.198C36.1393 24.3427 34.3702 26.0464 32.391 26.8731C31.7277 27.1501 31.092 27.4974 30.4955 27.9112C28.8267 29.0689 27.5386 30.6955 26.7942 32.5852C26.0499 34.475 25.8826 36.543 26.3135 38.5278C26.7445 40.5126 27.7543 42.3251 29.2153 43.736C30.6763 45.1468 32.5229 46.0928 34.5216 46.4542C36.5202 46.8156 38.5811 46.5763 40.4437 45.7664C42.3063 44.9565 43.887 43.6125 44.9857 41.9043C45.3785 41.2936 45.7034 40.6463 45.9571 39.9737C46.7142 37.9668 48.3551 36.1393 50.4998 36.1019V36.1019Z"/>
</mask>
<path d="M50.4998 36.1019C52.6444 36.0645 54.4555 37.7916 54.0338 39.8947C53.593 42.0932 52.7438 44.2015 51.5186 46.1064C49.5887 49.1067 46.8126 51.4673 43.5411 52.8898C40.2696 54.3123 36.6498 54.7327 33.1394 54.0979C29.6289 53.4631 26.3856 51.8016 23.8194 49.3235C21.2533 46.8454 19.4796 43.662 18.7227 40.1759C17.9658 36.6898 18.2596 33.0575 19.5671 29.7384C20.8745 26.4192 23.1368 23.5624 26.0679 21.529C27.9289 20.238 30.0063 19.3158 32.188 18.7985C34.2751 18.3037 36.0645 20.0534 36.1019 22.198V22.198C36.1393 24.3427 34.3702 26.0464 32.391 26.8731C31.7277 27.1501 31.092 27.4974 30.4955 27.9112C28.8267 29.0689 27.5386 30.6955 26.7942 32.5852C26.0499 34.475 25.8826 36.543 26.3135 38.5278C26.7445 40.5126 27.7543 42.3251 29.2153 43.736C30.6763 45.1468 32.5229 46.0928 34.5216 46.4542C36.5202 46.8156 38.5811 46.5763 40.4437 45.7664C42.3063 44.9565 43.887 43.6125 44.9857 41.9043C45.3785 41.2936 45.7034 40.6463 45.9571 39.9737C46.7142 37.9668 48.3551 36.1393 50.4998 36.1019V36.1019Z" stroke="url(#paint1_linear_113_46)" stroke-width="38" stroke-linejoin="round" mask="url(#path-2-inside-1_113_46)"/>
<path d="M35.8173 31.7763C35.9402 31.3744 44.023 20.1108 44.5185 19.9351C45.0141 19.7595 49.6922 21.0775 49.7714 21.5411C49.8506 22.0047 41.7282 30.5073 41.6053 30.9092C41.4824 31.3111 46.7175 32.2524 46.454 32.3916C46.1906 32.5308 31.1744 45.5173 32.0699 44.0333C32.9654 42.5494 39.9371 33.4753 40.06 33.0734C40.1828 32.6715 35.6944 32.1781 35.8173 31.7763Z" fill="url(#paint2_linear_113_46)"/>
<defs>
<linearGradient id="paint0_linear_113_46" x1="2" y1="2" x2="36" y2="72" gradientUnits="userSpaceOnUse">
<stop stop-color="#FE8369"/>
<stop offset="1" stop-color="#FE7097"/>
</linearGradient>
<linearGradient id="paint1_linear_113_46" x1="18.1252" y1="25.8044" x2="49.744" y2="59.198" gradientUnits="userSpaceOnUse">
<stop stop-color="white"/>
<stop offset="1" stop-color="white"/>
</linearGradient>
<linearGradient id="paint2_linear_113_46" x1="44.8994" y1="19.7626" x2="36.9822" y2="45.6587" gradientUnits="userSpaceOnUse">
<stop stop-color="white"/>
<stop offset="1" stop-color="#FFD5C6"/>
</linearGradient>
</defs>
</svg>
