<svg width="72" height="72" viewBox="0 0 72 72" fill="none" xmlns="http://www.w3.org/2000/svg">
<rect width="72" height="72" rx="19" fill="url(#paint0_linear_113_47)"/>
<mask id="path-2-inside-1_113_47" fill="white">
<path d="M53.0514 36.5178C53.616 36.5178 54.0767 36.9759 54.0448 37.5396C53.8627 40.748 52.8262 43.8563 51.034 46.5386C49.052 49.5047 46.2351 51.8165 42.9393 53.1817C39.6435 54.5469 36.0168 54.9041 32.518 54.2081C29.0192 53.5121 25.8054 51.7943 23.2829 49.2718C20.7604 46.7493 19.0425 43.5354 18.3466 40.0366C17.6506 36.5378 18.0078 32.9112 19.373 29.6154C20.7381 26.3196 23.05 23.5026 26.0161 21.5207C28.6984 19.7285 31.8067 18.6919 35.0151 18.5099C35.5788 18.4779 36.0369 18.9387 36.0369 19.5033V19.5033C36.0369 20.0679 35.5786 20.5222 35.0152 20.5582C32.2115 20.7377 29.498 21.6533 27.152 23.2208C24.5221 24.978 22.4724 27.4757 21.262 30.3979C20.0515 33.32 19.7348 36.5356 20.3519 39.6377C20.969 42.7399 22.4921 45.5895 24.7286 47.826C26.9652 50.0626 29.8147 51.5857 32.9169 52.2028C36.0191 52.8198 39.2346 52.5031 42.1568 51.2927C45.079 50.0823 47.5767 48.0325 49.3339 45.4026C50.9014 43.0567 51.817 40.3431 51.9964 37.5395C52.0325 36.976 52.4868 36.5178 53.0514 36.5178V36.5178Z"/>
</mask>
<path d="M53.0514 36.5178C53.616 36.5178 54.0767 36.9759 54.0448 37.5396C53.8627 40.748 52.8262 43.8563 51.034 46.5386C49.052 49.5047 46.2351 51.8165 42.9393 53.1817C39.6435 54.5469 36.0168 54.9041 32.518 54.2081C29.0192 53.5121 25.8054 51.7943 23.2829 49.2718C20.7604 46.7493 19.0425 43.5354 18.3466 40.0366C17.6506 36.5378 18.0078 32.9112 19.373 29.6154C20.7381 26.3196 23.05 23.5026 26.0161 21.5207C28.6984 19.7285 31.8067 18.6919 35.0151 18.5099C35.5788 18.4779 36.0369 18.9387 36.0369 19.5033V19.5033C36.0369 20.0679 35.5786 20.5222 35.0152 20.5582C32.2115 20.7377 29.498 21.6533 27.152 23.2208C24.5221 24.978 22.4724 27.4757 21.262 30.3979C20.0515 33.32 19.7348 36.5356 20.3519 39.6377C20.969 42.7399 22.4921 45.5895 24.7286 47.826C26.9652 50.0626 29.8147 51.5857 32.9169 52.2028C36.0191 52.8198 39.2346 52.5031 42.1568 51.2927C45.079 50.0823 47.5767 48.0325 49.3339 45.4026C50.9014 43.0567 51.817 40.3431 51.9964 37.5395C52.0325 36.976 52.4868 36.5178 53.0514 36.5178V36.5178Z" stroke="url(#paint1_linear_113_47)" stroke-width="38" stroke-linejoin="round" mask="url(#path-2-inside-1_113_47)"/>
<path d="M35.0552 46.5487V24.7305H36.4529V46.5487H35.0552ZM39.7597 31.2759C39.6575 30.4123 39.2427 29.7419 38.5154 29.2646C37.7881 28.7873 36.8961 28.5487 35.8393 28.5487C35.0666 28.5487 34.3904 28.6737 33.8109 28.9237C33.237 29.1737 32.7881 29.5174 32.4643 29.9549C32.1461 30.3924 31.987 30.8896 31.987 31.4464C31.987 31.9123 32.0978 32.3129 32.3194 32.6481C32.5467 32.9776 32.8364 33.2532 33.1887 33.4748C33.541 33.6907 33.9103 33.8697 34.2967 34.0117C34.683 34.1481 35.0381 34.2589 35.362 34.3441L37.1347 34.8214C37.5893 34.9407 38.095 35.1055 38.6518 35.3157C39.2143 35.5259 39.7512 35.8129 40.2626 36.1765C40.7796 36.5345 41.2058 36.9947 41.541 37.5572C41.8762 38.1197 42.0438 38.81 42.0438 39.6282C42.0438 40.5714 41.7967 41.4237 41.3024 42.185C40.8137 42.9464 40.0978 43.5515 39.1546 44.0004C38.2171 44.4492 37.0779 44.6737 35.737 44.6737C34.487 44.6737 33.4046 44.472 32.4899 44.0686C31.5808 43.6651 30.8649 43.1026 30.3421 42.3811C29.8251 41.6595 29.5325 40.8214 29.4643 39.8669H31.6461C31.7029 40.5259 31.9245 41.0714 32.3109 41.5032C32.7029 41.9294 33.1972 42.2475 33.7938 42.4578C34.3961 42.6623 35.0438 42.7646 35.737 42.7646C36.5438 42.7646 37.2683 42.6339 37.9103 42.3725C38.5524 42.1055 39.0609 41.7362 39.4359 41.2646C39.8109 40.7873 39.9984 40.2305 39.9984 39.5941C39.9984 39.0146 39.8364 38.543 39.5126 38.1794C39.1887 37.8157 38.7626 37.5203 38.2342 37.293C37.7058 37.0657 37.1347 36.8669 36.5211 36.6964L34.3734 36.0828C33.0097 35.6907 31.9302 35.1311 31.1347 34.4038C30.3393 33.6765 29.9416 32.7248 29.9416 31.5487C29.9416 30.5714 30.2058 29.7191 30.7342 28.9919C31.2683 28.2589 31.9842 27.6907 32.8819 27.2873C33.7853 26.8782 34.7938 26.6737 35.9075 26.6737C37.0325 26.6737 38.0325 26.8754 38.9075 27.2788C39.7825 27.6765 40.4756 28.222 40.987 28.9151C41.5041 29.6083 41.7768 30.3953 41.8052 31.2759H39.7597Z" fill="url(#paint2_linear_113_47)"/>
<path d="M55.8621 18.7059C55.9017 18.155 55.4873 17.6763 54.9364 17.6367L45.9596 16.9909C45.4088 16.9513 44.9301 17.3657 44.8904 17.9166C44.8508 18.4675 45.2653 18.9461 45.8161 18.9858L53.7955 19.5598L53.2215 27.5392C53.1819 28.09 53.5963 28.5687 54.1472 28.6083C54.698 28.648 55.1767 28.2335 55.2163 27.6827L55.8621 18.7059ZM46.0706 27.5706L55.5192 19.3901L54.2101 17.8781L44.7615 26.0586L46.0706 27.5706Z" fill="url(#paint3_linear_113_47)"/>
<defs>
<linearGradient id="paint0_linear_113_47" x1="2" y1="2" x2="36" y2="72" gradientUnits="userSpaceOnUse">
<stop stop-color="#352FCA"/>
<stop offset="1" stop-color="#2F77EA"/>
</linearGradient>
<linearGradient id="paint1_linear_113_47" x1="36.0369" y1="18.481" x2="36.0369" y2="54.5547" gradientUnits="userSpaceOnUse">
<stop stop-color="white"/>
<stop offset="1" stop-color="white"/>
</linearGradient>
<linearGradient id="paint2_linear_113_47" x1="23.0503" y1="21.3669" x2="55.7572" y2="53.5927" gradientUnits="userSpaceOnUse">
<stop stop-color="white"/>
<stop offset="1" stop-color="white"/>
</linearGradient>
<linearGradient id="paint3_linear_113_47" x1="49.8233" y1="22.4073" x2="55.0357" y2="21.3669" gradientUnits="userSpaceOnUse">
<stop stop-color="white"/>
<stop offset="1" stop-color="white"/>
</linearGradient>
</defs>
</svg>
