<svg width="872" height="898" viewBox="0 0 872 898" fill="none" xmlns="http://www.w3.org/2000/svg">
<g clip-path="url(#clip0_412_321)">
<path opacity="0.03" d="M0.982117 897.388C0.982117 897.388 95.7962 665.85 425.996 739.95C756.196 814.05 897.106 567.84 867.906 358.281C838.706 148.722 758.576 76.1687 515.786 184.21C272.996 292.251 101.098 238.292 0.986145 0.00170898C-1.22785 -1.68829 0.982117 897.388 0.982117 897.388Z" fill="url(#paint0_linear_412_321)"/>
<path opacity="0.03" d="M0.982117 897.388C0.982117 897.388 95.7962 665.85 425.996 739.95C756.196 814.05 897.106 567.84 867.906 358.281C838.706 148.722 758.576 76.1687 515.786 184.21C272.996 292.251 101.098 238.292 0.986145 0.00170898C-1.22785 -1.68829 0.982117 897.388 0.982117 897.388Z" fill="url(#paint1_linear_412_321)"/>
</g>
<defs>
<linearGradient id="paint0_linear_412_321" x1="435.827" y1="897.388" x2="435.827" y2="-0.000671387" gradientUnits="userSpaceOnUse">
<stop stop-color="#A15EDE"/>
<stop offset="1" stop-color="#8A52DA"/>
</linearGradient>
<linearGradient id="paint1_linear_412_321" x1="435.827" y1="897.388" x2="435.827" y2="-0.000671387" gradientUnits="userSpaceOnUse">
<stop stop-color="#A15EDE"/>
<stop offset="1" stop-color="#8A52DA"/>
</linearGradient>
<clipPath id="clip0_412_321">
<rect width="871.654" height="897.389" fill="white"/>
</clipPath>
</defs>
</svg>
