<svg width="872" height="898" viewBox="0 0 872 898" fill="none" xmlns="http://www.w3.org/2000/svg">
<path opacity="0.03" d="M870.671 0C870.671 0 775.857 231.538 445.657 157.438C115.457 83.338 -25.4531 329.548 3.74693 539.107C32.9469 748.666 113.077 821.219 355.867 713.178C598.657 605.137 770.555 659.096 870.667 897.386C872.881 899.076 870.671 0 870.671 0Z" fill="url(#paint0_linear_411_322)"/>
<path opacity="0.03" d="M870.671 0C870.671 0 775.857 231.538 445.657 157.438C115.457 83.338 -25.4531 329.548 3.74693 539.107C32.9469 748.666 113.077 821.219 355.867 713.178C598.657 605.137 770.555 659.096 870.667 897.386C872.881 899.076 870.671 0 870.671 0Z" fill="url(#paint1_linear_411_322)"/>
<defs>
<linearGradient id="paint0_linear_411_322" x1="435.826" y1="0" x2="435.826" y2="897.388" gradientUnits="userSpaceOnUse">
<stop stop-color="#A15EDE"/>
<stop offset="1" stop-color="#8952DA"/>
</linearGradient>
<linearGradient id="paint1_linear_411_322" x1="435.826" y1="0" x2="435.826" y2="897.388" gradientUnits="userSpaceOnUse">
<stop stop-color="#A15EDE"/>
<stop offset="1" stop-color="#8952DA"/>
</linearGradient>
</defs>
</svg>
